<svg xmlns="http://www.w3.org/2000/svg" width="72.067" height="39.011" viewBox="0 0 72.067 39.011">
  <g id="ロゴ" transform="translate(-2299.18 -3929.994)">
    <g id="ロゴ-2" data-name="ロゴ">
      <path id="Kirameki_Beauty_Labo" data-name="Kirameki Beauty Labo" d="M2368.18,3968.848a2.079,2.079,0,0,1-.667-.435,1.983,1.983,0,0,1-.446-.65,2.126,2.126,0,0,1,0-1.6,2,2,0,0,1,1.1-1.075,2.316,2.316,0,0,1,1.657,0,2.041,2.041,0,0,1,.664.43,1.956,1.956,0,0,1,.443.647,2.13,2.13,0,0,1,0,1.608,2,2,0,0,1-.44.647,2.069,2.069,0,0,1-.663.432,2.127,2.127,0,0,1-.82.156A2.159,2.159,0,0,1,2368.18,3968.848Zm.2-2.967a1.057,1.057,0,0,0-.415.43,1.373,1.373,0,0,0-.146.65,1.45,1.45,0,0,0,.084.508,1.148,1.148,0,0,0,.24.393,1.049,1.049,0,0,0,.375.254,1.274,1.274,0,0,0,.485.09,1.218,1.218,0,0,0,.623-.156,1.072,1.072,0,0,0,.414-.438,1.393,1.393,0,0,0,.146-.65,1.419,1.419,0,0,0-.085-.505,1.151,1.151,0,0,0-.242-.391,1.054,1.054,0,0,0-.376-.251,1.282,1.282,0,0,0-.481-.087A1.239,1.239,0,0,0,2368.377,3965.881Zm-25.466,2.912a1.5,1.5,0,0,1-.587-.572,1.644,1.644,0,0,1-.211-.835V3965h.89v2.439a.792.792,0,0,0,.1.407.684.684,0,0,0,.279.266.845.845,0,0,0,.391.092.818.818,0,0,0,.395-.092.686.686,0,0,0,.268-.263.791.791,0,0,0,.1-.4V3965h.891v2.395a1.642,1.642,0,0,1-.208.832,1.492,1.492,0,0,1-.581.57,1.913,1.913,0,0,1-1.727,0Zm-16.561.147V3965h.88v3.94Zm-21.37,0V3965h.89v3.94Zm59.392,0h-.874V3965h1.708a1.4,1.4,0,0,1,.651.139,1.008,1.008,0,0,1,.408.375.989.989,0,0,1,.14.519.861.861,0,0,1-.236.614.987.987,0,0,1-.246.188,1.167,1.167,0,0,1,.345.247,1,1,0,0,1,.273.715,1.084,1.084,0,0,1-.16.583,1.113,1.113,0,0,1-.462.41,1.6,1.6,0,0,1-.724.152Zm.739-.681a.539.539,0,0,0,.406-.15.509.509,0,0,0,.146-.369.517.517,0,0,0-.068-.268.475.475,0,0,0-.188-.184.6.6,0,0,0-.3-.067h-.739v1.038Zm-.074-1.7a.556.556,0,0,0,.356-.109.4.4,0,0,0,.135-.333.4.4,0,0,0-.135-.327.552.552,0,0,0-.356-.108h-.665v.876Zm-2.9,2.384-.261-.715h-1.56l-.265.715h-.919l1.579-3.942h.8l1.562,3.942Zm-.522-1.429-.514-1.406-.521,1.406Zm-5.563,1.429h-.974v-5.63h1.264v4.529h2.52v1.1Zm-5.425,0v-1.64l-1.416-2.284v.747h-1.246v3.177h-.885v-3.177h-1.245V3965h4.391l.848,1.44.849-1.44h1l-1.414,2.266v1.676ZM2351.408,3967Zm-10.546,1.942-.261-.715h-1.56l-.265.715h-.919l1.579-3.942h.8l1.562,3.942Zm-.522-1.429-.514-1.406-.521,1.406Zm-4.974,1.429h-.676V3965h2.83v.754h-1.945v.809h1.776v.731h-1.776v.889h1.973v.759Zm-4.426,0h-1.248v-5.63h2.439a2,2,0,0,1,.93.2,1.434,1.434,0,0,1,.584.534,1.409,1.409,0,0,1,.2.742,1.23,1.23,0,0,1-.338.876,1.408,1.408,0,0,1-.351.268,1.654,1.654,0,0,1,.491.354,1.429,1.429,0,0,1,.391,1.021,1.547,1.547,0,0,1-.229.833,1.586,1.586,0,0,1-.66.586,2.28,2.28,0,0,1-1.035.216Zm1.055-.973a.771.771,0,0,0,.58-.215.726.726,0,0,0,.209-.527.748.748,0,0,0-.1-.383.684.684,0,0,0-.27-.263.862.862,0,0,0-.422-.1h-1.055v1.483Zm-.1-2.432a.785.785,0,0,0,.507-.155.574.574,0,0,0,.193-.474.567.567,0,0,0-.193-.467.79.79,0,0,0-.507-.155h-.95v1.252Zm-7.01,3.406-1.521-1.938v1.938h-.885V3965h.885v1.778l1.47-1.778h1.094l-1.609,1.876,1.666,2.066Zm-5.2,0h-.677V3965h2.83v.754h-1.945v.809h1.776v.731h-1.776v.889h1.973v.759Zm-2.323,0v-2.179l-.863,1.33h-.586l-.863-1.338v2.187h-.88V3965h.632l1.406,2.17,1.4-2.17h.637v3.942ZM2316.368,3967.414Zm-3.556,1.524-.261-.715h-1.56l-.265.715H2308.8l-1.187-1.625h-.092v1.625h-.885V3965h1.624a1.544,1.544,0,0,1,.693.148,1.147,1.147,0,0,1,.468.41,1.169,1.169,0,0,1,0,1.208,1.125,1.125,0,0,1-.474.4,1.442,1.442,0,0,1-.373.117l1.249,1.619,1.565-3.907h.8l1.561,3.942Zm-.522-1.429-.514-1.406-.521,1.406Zm-4.139-.843a.575.575,0,0,0,.408-.135.52.52,0,0,0,0-.714.557.557,0,0,0-.406-.139h-.636v.988Zm-5.242,2.272-2.175-2.771v2.771h-1.264v-5.63h1.264v2.54l2.1-2.54h1.562l-2.3,2.679,2.38,2.951Z" fill="#333"/>
      <path id="KBL" d="M2354.28,3958.97h-.779v-28.976h1.385v27.733h16.361v1.243Zm-26.532,0h-1.385v-28.976h10.474a10.218,10.218,0,0,1,4.35.857,6.639,6.639,0,0,1,2.857,2.443,6.918,6.918,0,0,1,1.017,3.814,7.174,7.174,0,0,1-1.3,4.351,6.547,6.547,0,0,1-2.844,2.182,7.925,7.925,0,0,1,3.906,2.511,7.361,7.361,0,0,1,1.666,4.844,7.545,7.545,0,0,1-1.168,4.2,7.679,7.679,0,0,1-3.29,2.786,11.811,11.811,0,0,1-5.021.986Zm9.479-1.243a8.428,8.428,0,0,0,5.692-1.843,6.125,6.125,0,0,0,2.142-4.886,6.324,6.324,0,0,0-3.505-5.83,8.143,8.143,0,0,0-3.809-.856h-10v13.416Zm.3-14.574a6.164,6.164,0,0,0,4.5-1.608,5.8,5.8,0,0,0,1.645-4.35,5.439,5.439,0,0,0-1.861-4.372,7.419,7.419,0,0,0-4.978-1.587h-9.089v11.916Zm-18.915,15.817-18.048-14.7v14.7h-1.386v-28.976h1.386v13.522l17.659-13.522h2.121l-18.17,13.88,18.6,15.1Z" fill="#333"/>
    </g>
    <path id="Color_Overlay" data-name="Color Overlay" d="M2368.18,3968.848a2.078,2.078,0,0,1-.667-.435,1.975,1.975,0,0,1-.446-.65,2.123,2.123,0,0,1,0-1.6,2,2,0,0,1,1.1-1.075,2.316,2.316,0,0,1,1.657,0,2.041,2.041,0,0,1,.664.43,1.959,1.959,0,0,1,.443.647,2.133,2.133,0,0,1,0,1.608,2,2,0,0,1-.44.647,2.068,2.068,0,0,1-.662.432,2.127,2.127,0,0,1-.82.156A2.16,2.16,0,0,1,2368.18,3968.848Zm.2-2.967a1.058,1.058,0,0,0-.414.43,1.37,1.37,0,0,0-.146.65,1.444,1.444,0,0,0,.085.508,1.151,1.151,0,0,0,.24.393,1.053,1.053,0,0,0,.375.254,1.275,1.275,0,0,0,.485.09,1.217,1.217,0,0,0,.623-.156,1.071,1.071,0,0,0,.415-.438,1.4,1.4,0,0,0,.146-.65,1.425,1.425,0,0,0-.084-.505,1.151,1.151,0,0,0-.242-.391,1.051,1.051,0,0,0-.375-.251,1.284,1.284,0,0,0-.481-.087A1.24,1.24,0,0,0,2368.377,3965.881Zm-25.466,2.912a1.5,1.5,0,0,1-.587-.572,1.646,1.646,0,0,1-.211-.835V3965H2343v2.439a.792.792,0,0,0,.1.407.683.683,0,0,0,.279.266.846.846,0,0,0,.392.092.818.818,0,0,0,.395-.092.686.686,0,0,0,.268-.263.793.793,0,0,0,.1-.4V3965h.89v2.395a1.642,1.642,0,0,1-.208.832,1.491,1.491,0,0,1-.581.57,1.913,1.913,0,0,1-1.727,0Zm-16.561.147V3965h.879v3.94Zm-21.37,0V3965h.889v3.94Zm59.392,0h-.874V3965h1.708a1.4,1.4,0,0,1,.651.139,1.011,1.011,0,0,1,.408.375.991.991,0,0,1,.14.519.861.861,0,0,1-.236.614,1,1,0,0,1-.247.187,1.189,1.189,0,0,1,.346.248,1,1,0,0,1,.273.715,1.084,1.084,0,0,1-.16.583,1.114,1.114,0,0,1-.462.41,1.6,1.6,0,0,1-.724.152Zm0-.681h.739a.539.539,0,0,0,.406-.15.51.51,0,0,0,.146-.369.516.516,0,0,0-.068-.268.478.478,0,0,0-.188-.184.6.6,0,0,0-.3-.067h-.739Zm0-1.7h.665a.557.557,0,0,0,.356-.109.4.4,0,0,0,.135-.333.4.4,0,0,0-.135-.327.552.552,0,0,0-.356-.108h-.665Zm-2.231,2.384-.262-.715h-1.559l-.265.715h-.919l1.579-3.942h.8l1.562,3.942Zm-1.557-1.429h1.035l-.514-1.406Zm-4.528,1.429h-.974v-5.63h1.264v4.529h2.52v1.1Zm-5.425,0V3967.3l-1.415-2.284v.748h-1.246v3.177h-.885v-3.177h-1.245V3965h4.391l.848,1.439.849-1.439h1l-1.415,2.266v1.676Zm-9.769,0-.261-.715h-1.56l-.265.715h-.919l1.579-3.942h.8l1.562,3.942Zm-1.557-1.429h1.035l-.514-1.406Zm-3.939,1.429h-.677V3965h2.83v.754h-1.946v.809h1.776v.731h-1.776v.889h1.973v.759Zm-4.426,0h-1.248v-5.63h2.439a2,2,0,0,1,.93.2,1.433,1.433,0,0,1,.583.534,1.409,1.409,0,0,1,.2.742,1.23,1.23,0,0,1-.338.876,1.43,1.43,0,0,1-.351.268,1.643,1.643,0,0,1,.491.354,1.429,1.429,0,0,1,.39,1.021,1.547,1.547,0,0,1-.229.833,1.587,1.587,0,0,1-.66.586,2.28,2.28,0,0,1-1.035.216Zm0-.973H2332a.77.77,0,0,0,.58-.215.725.725,0,0,0,.209-.527.748.748,0,0,0-.1-.383.687.687,0,0,0-.27-.263.863.863,0,0,0-.422-.1h-1.055Zm0-2.432h.95a.784.784,0,0,0,.507-.155.573.573,0,0,0,.193-.474.566.566,0,0,0-.193-.467.79.79,0,0,0-.507-.155h-.95Zm-6.06,3.406-1.521-1.938v1.938h-.885V3965h.885v1.778l1.47-1.778h1.094l-1.61,1.876,1.667,2.066Zm-5.2,0h-.676V3965h2.83v.754h-1.945v.809h1.776v.731h-1.776v.889h1.973v.759Zm-2.323,0v-2.179l-.863,1.331h-.586l-.863-1.339v2.188h-.879V3965h.631l1.406,2.169,1.4-2.169h.637v3.942Zm-4.548,0-.261-.715h-1.56l-.265.715H2308.8l-1.187-1.625h-.092v1.625h-.885V3965h1.624a1.544,1.544,0,0,1,.693.148,1.146,1.146,0,0,1,.468.41,1.167,1.167,0,0,1,0,1.208,1.125,1.125,0,0,1-.474.4,1.436,1.436,0,0,1-.373.117l1.249,1.62,1.565-3.908h.8l1.561,3.942Zm-1.557-1.429h1.035l-.514-1.406Zm-3.736-.843h.631a.574.574,0,0,0,.408-.135.52.52,0,0,0,0-.714.556.556,0,0,0-.406-.139h-.636Zm-4.611,2.272-2.174-2.771v2.771h-1.264v-5.63h1.264v2.54l2.1-2.54h1.562l-2.3,2.679,2.381,2.951Zm51.371-9.969h-.779v-28.975h1.385v27.733h16.361v1.242Zm-26.532,0h-1.385v-28.975h10.474a10.211,10.211,0,0,1,4.35.857,6.642,6.642,0,0,1,2.858,2.444,6.918,6.918,0,0,1,1.016,3.814,7.177,7.177,0,0,1-1.3,4.351,6.55,6.55,0,0,1-2.845,2.182,7.919,7.919,0,0,1,3.906,2.511,7.364,7.364,0,0,1,1.667,4.844,7.544,7.544,0,0,1-1.168,4.2,7.68,7.68,0,0,1-3.29,2.786,11.813,11.813,0,0,1-5.02.985Zm0-1.242h9.478a8.428,8.428,0,0,0,5.693-1.844,6.123,6.123,0,0,0,2.142-4.886,6.32,6.32,0,0,0-3.505-5.83,8.137,8.137,0,0,0-3.809-.857h-10Zm0-14.574h9.781a6.164,6.164,0,0,0,4.5-1.608,5.805,5.805,0,0,0,1.645-4.35,5.438,5.438,0,0,0-1.861-4.372,7.421,7.421,0,0,0-4.978-1.587h-9.088Zm-9.133,15.816-18.048-14.7v14.7h-1.386v-28.975h1.386v13.522l17.659-13.522h2.121l-18.17,13.879,18.6,15.1Z" fill="#fff"/>
  </g>
</svg>
