<svg xmlns="http://www.w3.org/2000/svg" width="71.595" height="39.135" viewBox="0 0 71.595 39.135">
  <g id="ロゴ" transform="translate(-2152.396 -10.939)">
    <g id="ロゴ-2" data-name="ロゴ">
      <path id="Kirameki_Beauty_Labo" data-name="Kirameki Beauty Labo" d="M2220.944,49.917a2.07,2.07,0,0,1-.663-.437,1.983,1.983,0,0,1-.443-.653,2.149,2.149,0,0,1,0-1.61,2,2,0,0,1,1.1-1.078,2.277,2.277,0,0,1,1.646,0,2.013,2.013,0,0,1,.661.432,1.953,1.953,0,0,1,.44.649,2.153,2.153,0,0,1,0,1.613,1.985,1.985,0,0,1-.437.65,2.035,2.035,0,0,1-.657.434,2.113,2.113,0,0,1-.815.157A2.137,2.137,0,0,1,2220.944,49.917Zm.2-2.976a1.049,1.049,0,0,0-.411.431,1.382,1.382,0,0,0-.146.653,1.482,1.482,0,0,0,.083.509,1.137,1.137,0,0,0,.239.4,1.043,1.043,0,0,0,.373.255,1.262,1.262,0,0,0,.482.09,1.2,1.2,0,0,0,.618-.158,1.061,1.061,0,0,0,.411-.439,1.4,1.4,0,0,0,.146-.653,1.454,1.454,0,0,0-.084-.507,1.123,1.123,0,0,0-.241-.392,1.058,1.058,0,0,0-.372-.252,1.277,1.277,0,0,0-.479-.086A1.214,1.214,0,0,0,2221.14,46.94Zm-25.3,2.92a1.494,1.494,0,0,1-.582-.574,1.65,1.65,0,0,1-.211-.837v-2.4h.886V48.5a.794.794,0,0,0,.1.409.674.674,0,0,0,.277.266.829.829,0,0,0,.389.092.808.808,0,0,0,.392-.092.685.685,0,0,0,.265-.264.8.8,0,0,0,.1-.406V46.053h.885v2.4a1.658,1.658,0,0,1-.207.834,1.492,1.492,0,0,1-.577.571,1.882,1.882,0,0,1-1.716,0Zm21.321.146h-.868V46.053h1.7a1.384,1.384,0,0,1,.647.139.984.984,0,0,1,.545.9.867.867,0,0,1-.235.616.986.986,0,0,1-.244.188,1.148,1.148,0,0,1,.342.249,1.012,1.012,0,0,1,.272.716,1.093,1.093,0,0,1-.16.586,1.111,1.111,0,0,1-.459.411,1.579,1.579,0,0,1-.719.151Zm.733-.683a.534.534,0,0,0,.4-.151.513.513,0,0,0,.146-.37.529.529,0,0,0-.068-.269.484.484,0,0,0-.187-.185.593.593,0,0,0-.294-.067h-.733v1.042Zm-.073-1.708a.545.545,0,0,0,.353-.109.405.405,0,0,0,.135-.334.4.4,0,0,0-.135-.328.54.54,0,0,0-.353-.109h-.661v.879Zm-2.878,2.391-.26-.717h-1.549l-.263.717h-.913l1.568-3.954h.795l1.552,3.954Zm-.519-1.434-.51-1.409-.517,1.409Zm-5.526,1.434h-.969V44.358h1.256V48.9h2.5v1.1Zm-5.39,0V48.359l-1.405-2.287v.748h-1.238v3.187h-.878V46.82h-1.239v-.767h4.362l.844,1.444.843-1.444h1l-1.406,2.272v1.681ZM2204.282,48.057ZM2193.8,50.007l-.259-.717H2192l-.263.717h-.913l1.568-3.954h.8l1.551,3.954Zm-.519-1.434-.51-1.409-.517,1.409Zm-4.941,1.434h-.672V46.053h2.811v.756h-1.931v.812h1.764v.734h-1.764v.89h1.96v.762Zm-4.4,0h-1.239V44.358h2.424a1.962,1.962,0,0,1,.923.2,1.406,1.406,0,0,1,.781,1.281,1.24,1.24,0,0,1-.336.879,1.415,1.415,0,0,1-.349.269,1.648,1.648,0,0,1,.489.356,1.442,1.442,0,0,1,.388,1.024,1.564,1.564,0,0,1-.228.835,1.585,1.585,0,0,1-.656.589,2.26,2.26,0,0,1-1.028.216ZM2185,49.03a.76.76,0,0,0,.575-.216.728.728,0,0,0,.209-.527.758.758,0,0,0-.1-.384.681.681,0,0,0-.268-.264.849.849,0,0,0-.419-.1h-1.049V49.03Zm-.1-2.44a.776.776,0,0,0,.5-.156.578.578,0,0,0,.192-.476.567.567,0,0,0-.192-.468.771.771,0,0,0-.5-.156h-.944V46.59Zm-6.964,3.416-1.512-1.946v1.946h-.879V46.053h.879v1.784l1.462-1.784h1.086l-1.6,1.881,1.656,2.073Zm-5.163,0h-.671V46.053h2.811v.756h-1.932v.812h1.765v.734h-1.765v.89h1.96v.762Zm-2.307,0V47.82l-.857,1.335h-.582l-.857-1.343v2.194h-.874V46.053h.627l1.4,2.175,1.392-2.175h.633v3.954ZM2169.472,48.478Zm-3.534,1.529-.259-.717h-1.549l-.263.717h-1.915l-1.179-1.63h-.092v1.63h-.879V46.053h1.613a1.52,1.52,0,0,1,.688.148,1.15,1.15,0,0,1,.465.411,1.182,1.182,0,0,1,0,1.212,1.13,1.13,0,0,1-.471.406,1.426,1.426,0,0,1-.371.117l1.241,1.624,1.554-3.92h.8l1.551,3.954Zm-.519-1.434-.51-1.409-.517,1.409Zm-4.112-.846a.567.567,0,0,0,.406-.134.523.523,0,0,0,0-.716.545.545,0,0,0-.4-.14h-.633v.991Zm-5.208,2.28-2.16-2.779v2.779h-1.255V44.358h1.255v2.549l2.088-2.549h1.552l-2.286,2.688,2.365,2.961ZM2179.38,50V46.05h.88V50Zm-21.22,0V46.05h.88V50Z" fill="#333"/>
      <path id="KBL" d="M2207.135,40.007h-.774V10.939h1.376V38.759h16.254v1.247Zm-26.359,0H2179.4V10.939h10.406a10.081,10.081,0,0,1,4.322.859,6.609,6.609,0,0,1,2.838,2.452,6.994,6.994,0,0,1,1.011,3.827,7.251,7.251,0,0,1-1.29,4.364,6.519,6.519,0,0,1-2.826,2.189,7.858,7.858,0,0,1,3.879,2.52,7.424,7.424,0,0,1,1.656,4.859,7.4,7.4,0,0,1-4.429,7.009,11.642,11.642,0,0,1-4.989.989Zm9.417-1.247a8.313,8.313,0,0,0,5.655-1.849,6.17,6.17,0,0,0,2.128-4.9,6.354,6.354,0,0,0-3.483-5.848,8.009,8.009,0,0,0-3.784-.86h-9.932V38.759Zm.3-14.62a6.093,6.093,0,0,0,4.472-1.613,5.854,5.854,0,0,0,1.633-4.364,5.484,5.484,0,0,0-1.849-4.387,7.324,7.324,0,0,0-4.945-1.591h-9.03V24.14ZM2171.7,40.007,2153.772,25.26V40.007H2152.4V10.939h1.376V24.5l17.544-13.566h2.107l-18.051,13.924,18.481,15.144Z" fill="#333"/>
    </g>
    <path id="Color_Overlay" data-name="Color Overlay" d="M2220.944,49.917a2.07,2.07,0,0,1-.663-.437,1.983,1.983,0,0,1-.443-.653,2.149,2.149,0,0,1,0-1.61,2,2,0,0,1,1.1-1.078,2.277,2.277,0,0,1,1.646,0,2.013,2.013,0,0,1,.661.432,1.953,1.953,0,0,1,.44.649,2.153,2.153,0,0,1,0,1.613,1.985,1.985,0,0,1-.437.65,2.035,2.035,0,0,1-.657.434,2.113,2.113,0,0,1-.815.157A2.137,2.137,0,0,1,2220.944,49.917Zm.2-2.976a1.049,1.049,0,0,0-.411.431,1.382,1.382,0,0,0-.146.653,1.482,1.482,0,0,0,.083.509,1.137,1.137,0,0,0,.239.4,1.043,1.043,0,0,0,.373.255,1.262,1.262,0,0,0,.482.09,1.2,1.2,0,0,0,.618-.158,1.061,1.061,0,0,0,.411-.439,1.4,1.4,0,0,0,.146-.653,1.454,1.454,0,0,0-.084-.507,1.123,1.123,0,0,0-.241-.392,1.058,1.058,0,0,0-.372-.252,1.277,1.277,0,0,0-.479-.086A1.214,1.214,0,0,0,2221.14,46.94Zm-25.3,2.92a1.494,1.494,0,0,1-.582-.574,1.65,1.65,0,0,1-.211-.837v-2.4h.886V48.5a.794.794,0,0,0,.1.409.674.674,0,0,0,.277.266.829.829,0,0,0,.389.092.808.808,0,0,0,.392-.092.685.685,0,0,0,.265-.264.8.8,0,0,0,.1-.406V46.053h.885v2.4a1.658,1.658,0,0,1-.207.834,1.492,1.492,0,0,1-.577.571,1.882,1.882,0,0,1-1.716,0Zm21.321.146h-.868V46.053h1.7a1.384,1.384,0,0,1,.647.139.984.984,0,0,1,.545.9.867.867,0,0,1-.235.616.99.99,0,0,1-.244.188,1.149,1.149,0,0,1,.342.249,1.012,1.012,0,0,1,.272.716,1.093,1.093,0,0,1-.16.586,1.111,1.111,0,0,1-.459.411,1.579,1.579,0,0,1-.719.151Zm0-.683h.733a.534.534,0,0,0,.4-.151.513.513,0,0,0,.146-.37.529.529,0,0,0-.068-.269.484.484,0,0,0-.187-.185.593.593,0,0,0-.294-.067h-.733Zm0-1.708h.661a.545.545,0,0,0,.353-.109.405.405,0,0,0,.135-.334.4.4,0,0,0-.135-.328.54.54,0,0,0-.353-.109h-.661Zm-2.218,2.391-.259-.717h-1.549l-.264.717h-.913l1.568-3.954h.795l1.552,3.954Zm-1.545-1.434h1.027l-.51-1.409Zm-4.5,1.434h-.969V44.358h1.256V48.9h2.5v1.1Zm-5.39,0V48.359l-1.405-2.287v.748h-1.238v3.187h-.878V46.82h-1.239v-.767h4.362l.844,1.444.843-1.444h1l-1.406,2.272v1.681Zm-9.7,0-.259-.717H2192l-.264.717h-.913l1.568-3.954h.8l1.551,3.954Zm-1.546-1.434h1.028l-.51-1.409Zm-3.913,1.434h-.672V46.053h2.811v.756h-1.931v.812h1.764v.734h-1.764v.89h1.96v.762Zm-4.4,0h-1.239V44.358h2.424a1.962,1.962,0,0,1,.923.2,1.406,1.406,0,0,1,.781,1.281,1.24,1.24,0,0,1-.336.879,1.41,1.41,0,0,1-.349.269,1.66,1.66,0,0,1,.489.355,1.442,1.442,0,0,1,.388,1.024,1.564,1.564,0,0,1-.228.835,1.585,1.585,0,0,1-.656.589,2.26,2.26,0,0,1-1.028.216Zm0-.977H2185a.76.76,0,0,0,.575-.216.728.728,0,0,0,.209-.527.758.758,0,0,0-.1-.384.681.681,0,0,0-.268-.264.849.849,0,0,0-.419-.1h-1.049Zm0-2.44h.944a.776.776,0,0,0,.5-.156.578.578,0,0,0,.192-.476.567.567,0,0,0-.192-.468.771.771,0,0,0-.5-.156h-.944Zm-6.02,3.416-1.512-1.947v1.947h-.879V46.053h.879v1.784l1.462-1.784h1.086l-1.6,1.881,1.656,2.073Zm-5.163,0h-.671V46.053h2.811v.756h-1.932v.812h1.765v.734h-1.765v.89h1.96v.762Zm-2.307,0V47.82l-.857,1.336h-.582l-.857-1.343v2.194h-.874V46.053h.627l1.4,2.175,1.392-2.175h.633v3.954Zm-4.52,0-.259-.717h-1.549l-.264.717h-1.915l-1.179-1.63h-.092v1.63h-.879V46.053h1.613a1.52,1.52,0,0,1,.688.148,1.15,1.15,0,0,1,.465.411,1.182,1.182,0,0,1,0,1.212,1.13,1.13,0,0,1-.471.406,1.42,1.42,0,0,1-.371.117l1.241,1.625,1.554-3.919h.8l1.551,3.954Zm-1.546-1.434h1.028l-.51-1.409Zm-3.712-.846h.627a.567.567,0,0,0,.406-.134.523.523,0,0,0,0-.716.545.545,0,0,0-.4-.14h-.633Zm-4.581,2.28-2.16-2.779v2.779h-1.255V44.358h1.255v2.549l2.088-2.549h1.552l-2.286,2.687,2.365,2.961ZM2179.38,50V46.05h.88V50Zm-21.22,0V46.05h.88V50Zm48.975-9.994h-.774V10.939h1.376V38.759h16.254v1.247Zm-26.359,0H2179.4V10.939h10.406a10.081,10.081,0,0,1,4.322.859,6.609,6.609,0,0,1,2.838,2.452,6.994,6.994,0,0,1,1.011,3.827,7.251,7.251,0,0,1-1.29,4.364,6.521,6.521,0,0,1-2.827,2.189,7.858,7.858,0,0,1,3.88,2.52,7.424,7.424,0,0,1,1.656,4.859,7.4,7.4,0,0,1-4.429,7.009,11.642,11.642,0,0,1-4.989.989Zm0-1.247h9.417a8.313,8.313,0,0,0,5.655-1.849,6.17,6.17,0,0,0,2.128-4.9,6.354,6.354,0,0,0-3.483-5.848,8.009,8.009,0,0,0-3.784-.86h-9.932Zm0-14.62h9.718a6.093,6.093,0,0,0,4.472-1.613,5.854,5.854,0,0,0,1.633-4.364,5.484,5.484,0,0,0-1.849-4.387,7.324,7.324,0,0,0-4.945-1.591h-9.03ZM2171.7,40.007,2153.772,25.26V40.007H2152.4V10.939h1.376V24.5l17.544-13.566h2.107l-18.051,13.924,18.481,15.144Z" fill="#fa7da3"/>
  </g>
</svg>
