<svg xmlns="http://www.w3.org/2000/svg" width="292.968" height="26" viewBox="0 0 292.968 26">
  <g id="グループ_3" data-name="グループ 3" transform="translate(-2190.449 -895.213)">
    <path id="Kirameki_Beauty_Labo" data-name="Kirameki Beauty Labo" d="M2308.4,916.317a4.061,4.061,0,0,1-.945-2.9v-4.45a10.368,10.368,0,0,0-.1-1.726h1.877a9.872,9.872,0,0,0-.1,1.726v4.45a2.571,2.571,0,1,0,5.143-.013v-4.437a10.245,10.245,0,0,0-.1-1.726h1.878a10.191,10.191,0,0,0-.1,1.715v4.474c0,2.609-1.55,4.071-4.3,4.071A4.344,4.344,0,0,1,2308.4,916.317Zm68.79-4.083a5.4,5.4,0,0,1,1.437-3.933,4.369,4.369,0,0,1,3.252-1.26,4.418,4.418,0,0,1,3.315,1.26,5.437,5.437,0,0,1,1.412,3.933c0,3.189-1.853,5.255-4.714,5.255S2377.189,915.435,2377.189,912.234Zm1.752.012a4.167,4.167,0,0,0,1.021,2.975,2.724,2.724,0,0,0,1.954.769c1.8,0,2.924-1.437,2.924-3.756a4.071,4.071,0,0,0-1-2.938,2.712,2.712,0,0,0-1.94-.769C2380.089,908.528,2378.941,909.965,2378.941,912.245Zm-26.408,5.094h-5.33c-1.008,0-1.638.018-2.286.054a14.3,14.3,0,0,0,.144-2.377v-9.345a17.561,17.561,0,0,0-.144-2.664h2.719a16.429,16.429,0,0,0-.144,2.646v9.508h5.041a18.98,18.98,0,0,0,2.557-.127v2.431A17.486,17.486,0,0,0,2352.533,917.339Zm-78.721-2.377v-9.777a17.168,17.168,0,0,0-.144-2.215c.756.037,1.044.037,2.269.037h4.249c2.791,0,4.357,1.26,4.357,3.511a3.222,3.222,0,0,1-1.008,2.539,3.046,3.046,0,0,1-1.422.756,3.3,3.3,0,0,1,1.818.828,3.555,3.555,0,0,1,1.116,2.755c0,2.521-1.674,3.943-4.663,3.943h-4.43c-1.044,0-1.566.018-2.3.054A12.831,12.831,0,0,0,2273.812,914.963Zm2.377.343h3.871c1.6,0,2.5-.793,2.5-2.251a1.949,1.949,0,0,0-.576-1.567,2.941,2.941,0,0,0-1.962-.612h-3.835Zm0-6.429h3.745a1.91,1.91,0,0,0,2.179-1.962,1.835,1.835,0,0,0-.469-1.333,2.553,2.553,0,0,0-1.728-.558h-3.727Zm16.9,8.4h-3.932c-.756,0-1.1.013-1.6.038a10.182,10.182,0,0,0,.1-1.663V908.83a11.135,11.135,0,0,0-.1-1.625c.5.025.832.038,1.6.038h3.806a13.473,13.473,0,0,0,1.626-.088v1.663a11.3,11.3,0,0,0-1.626-.088h-3.63v2.6h3.063a13.142,13.142,0,0,0,1.639-.088v1.651a9.882,9.882,0,0,0-1.639-.088h-3.075v2.974h3.781a12.06,12.06,0,0,0,1.614-.088v1.676A10.842,10.842,0,0,0,2293.091,917.275Zm-44.668,0h-3.933c-.756,0-1.1.013-1.6.038a10.21,10.21,0,0,0,.1-1.663V908.83a11.169,11.169,0,0,0-.1-1.625c.5.025.832.038,1.6.038h3.806a13.468,13.468,0,0,0,1.626-.088v1.663a11.289,11.289,0,0,0-1.626-.088h-3.63v2.6h3.063a13.118,13.118,0,0,0,1.639-.088v1.651a9.882,9.882,0,0,0-1.639-.088h-3.075v2.974h3.781a12.056,12.056,0,0,0,1.614-.088v1.676A10.832,10.832,0,0,0,2248.423,917.275Zm-48.792.065a16.776,16.776,0,0,0-1.135-1.89l-3.583-5.042-1.962,1.963v2.646a12.3,12.3,0,0,0,.161,2.323h-2.664a15.468,15.468,0,0,0,.144-2.323V905.33a14.859,14.859,0,0,0-.144-2.322h2.664a13,13,0,0,0-.161,2.322v4.2l4.591-4.772a8.867,8.867,0,0,0,1.4-1.746h3.4c-.522.521-1.117,1.1-1.909,1.908l-3.853,3.944,4.573,6.194a24.559,24.559,0,0,0,1.8,2.286Zm167.995-1.728v-6.844a12.017,12.017,0,0,0-.1-1.551c.529.025.731.025,1.588.025h2.974c1.954,0,3.05.882,3.05,2.458a2.254,2.254,0,0,1-.706,1.777,2.142,2.142,0,0,1-1,.53,2.3,2.3,0,0,1,1.273.58,2.487,2.487,0,0,1,.781,1.928c0,1.765-1.172,2.76-3.264,2.76h-3.1c-.731,0-1.1.013-1.613.038A8.976,8.976,0,0,0,2367.626,915.611Zm1.663.239H2372c1.121,0,1.752-.554,1.752-1.576a1.362,1.362,0,0,0-.4-1.1,2.058,2.058,0,0,0-1.373-.428h-2.685Zm0-4.5h2.622a1.337,1.337,0,0,0,1.525-1.373,1.284,1.284,0,0,0-.328-.933,1.788,1.788,0,0,0-1.21-.391h-2.609Zm-5.378,5.924a8.475,8.475,0,0,0-.353-1.323l-.5-1.374h-4.034l-.5,1.374a6.285,6.285,0,0,0-.378,1.323h-2.067a13.9,13.9,0,0,0,.669-1.487l2.772-7.273a7.39,7.39,0,0,0,.4-1.273h2.192a8.331,8.331,0,0,0,.428,1.273l2.8,7.273a13.372,13.372,0,0,0,.644,1.487Zm-3.126-7.877-1.311,3.73h3.125l-1.348-3.73c-.05-.14-.088-.291-.227-.706C2360.823,909.284,2360.823,909.284,2360.786,909.4Zm-30.084,7.877a12.056,12.056,0,0,0,.1-1.625v-2.5l-2.911-4.613c-.189-.3-.479-.718-.883-1.3h2.206a5.1,5.1,0,0,0,.6,1.235l1.828,3.1,1.852-3.088a5.486,5.486,0,0,0,.593-1.247h2.192c-.177.252-.655.945-.869,1.3l-2.912,4.626v2.483a10.381,10.381,0,0,0,.1,1.625Zm-9.752,0a10.584,10.584,0,0,0,.1-1.638v-6.882h-1.7a12.359,12.359,0,0,0-1.727.089v-1.689a12.7,12.7,0,0,0,1.714.088h4.991a13.371,13.371,0,0,0,1.852-.088v1.689a13.078,13.078,0,0,0-1.852-.089h-1.576v6.882a10.478,10.478,0,0,0,.1,1.638Zm-17.172,0a8.475,8.475,0,0,0-.353-1.323l-.5-1.374h-4.033l-.5,1.374a6.287,6.287,0,0,0-.378,1.323h-2.067a13.757,13.757,0,0,0,.669-1.487l2.773-7.273a7.469,7.469,0,0,0,.4-1.273h2.193a8.115,8.115,0,0,0,.428,1.273l2.8,7.273a13.325,13.325,0,0,0,.644,1.487Zm-3.126-7.877-1.31,3.73h3.125l-1.348-3.73c-.051-.14-.088-.291-.227-.706C2300.689,909.284,2300.689,909.284,2300.651,909.4Zm-38.294,7.877a9.5,9.5,0,0,0,.1-1.625v-6.781a9.4,9.4,0,0,0-.1-1.625h1.915a9.43,9.43,0,0,0-.1,1.625v6.781a9.522,9.522,0,0,0,.1,1.625Zm-3.9,0a11.705,11.705,0,0,0-.795-1.323l-2.508-3.529-1.374,1.373v1.853a8.545,8.545,0,0,0,.114,1.625h-1.865a10.836,10.836,0,0,0,.1-1.625v-6.781a10.412,10.412,0,0,0-.1-1.625h1.865a9.013,9.013,0,0,0-.114,1.625V911.8l3.214-3.34a6.245,6.245,0,0,0,.984-1.222h2.381c-.365.365-.781.769-1.336,1.336l-2.7,2.76,3.2,4.336a17.08,17.08,0,0,0,1.26,1.6Zm-19.617,0a11.7,11.7,0,0,0,.1-1.84V911.25c.051-1.1.088-1.74.1-1.928a15.3,15.3,0,0,1-.581,1.84l-1.89,4.436a10.213,10.213,0,0,0-.554,1.677h-1.488a8.578,8.578,0,0,0-.554-1.7l-1.815-4.324a14.038,14.038,0,0,1-.643-1.928c.051.668.1,1.7.1,1.978v4.135a11.5,11.5,0,0,0,.1,1.84h-1.764a11.842,11.842,0,0,0,.1-1.84v-6.328a12.525,12.525,0,0,0-.1-1.865h2.306a8.642,8.642,0,0,0,.467,1.5l2.559,6.251,2.545-6.251a6.981,6.981,0,0,0,.454-1.5h2.319a13.037,13.037,0,0,0-.1,1.865v6.328a10.914,10.914,0,0,0,.1,1.84Zm-12.487,0a8.5,8.5,0,0,0-.353-1.323l-.5-1.374h-4.034l-.5,1.374a6.285,6.285,0,0,0-.378,1.323h-2.067a13.709,13.709,0,0,0,.669-1.487l2.772-7.273a7.405,7.405,0,0,0,.4-1.273h2.192a8.331,8.331,0,0,0,.428,1.273l2.8,7.273a13.338,13.338,0,0,0,.643,1.487Zm-3.126-7.877-1.311,3.73h3.126l-1.348-3.73c-.05-.14-.088-.291-.227-.706C2223.26,909.284,2223.26,909.284,2223.222,909.4Zm-7.8,7.877a10.184,10.184,0,0,0-.655-2.016c-.681-1.74-1.122-2.206-2.092-2.206H2210.8v2.571a9.823,9.823,0,0,0,.1,1.651h-1.877a9.85,9.85,0,0,0,.1-1.638v-6.793a11.2,11.2,0,0,0-.1-1.639c.529.025.92.038,1.613.038h3.025c1.916,0,3.012.958,3.012,2.622a2.59,2.59,0,0,1-.643,1.877,2.664,2.664,0,0,1-1.4.732c.794.252,1.033.6,2.281,3.554.1.227.417.907.593,1.247Zm-4.626-5.659h2.533a1.7,1.7,0,0,0,1.2-.454,1.5,1.5,0,0,0,.4-1.109c0-.908-.517-1.374-1.551-1.374H2210.8Zm-5.972,5.659a9.5,9.5,0,0,0,.1-1.625v-6.781a9.4,9.4,0,0,0-.1-1.625h1.915a9.4,9.4,0,0,0-.1,1.625v6.781a9.5,9.5,0,0,0,.1,1.625Z" fill="#4d2b1b"/>
    <text id="が選ばれる" transform="translate(2390.417 916.213)" fill="#4d2b1b" font-size="18" font-family="NotoSansJP-Medium, Noto Sans JP" font-weight="500" letter-spacing="0.04em"><tspan x="0" y="0">が</tspan><tspan y="0">選</tspan><tspan y="0">ばれる</tspan></text>
  </g>
</svg>
