<svg xmlns="http://www.w3.org/2000/svg" width="70.989" height="39.01" viewBox="0 0 70.989 39.01">
  <g id="ロゴ" transform="translate(-2219.007 -1134.995)">
    <g id="ロゴ-2" data-name="ロゴ">
      <path id="Kirameki_Beauty_Labo" data-name="Kirameki Beauty Labo" d="M2286.976,1173.848a2.04,2.04,0,0,1-.658-.436,1.971,1.971,0,0,1-.439-.651,2.144,2.144,0,0,1,0-1.6,1.978,1.978,0,0,1,1.085-1.075,2.253,2.253,0,0,1,1.633,0,2,2,0,0,1,.655.43,1.956,1.956,0,0,1,.436.647,2.154,2.154,0,0,1,0,1.608,1.977,1.977,0,0,1-.433.647,2,2,0,0,1-.652.433,2.09,2.09,0,0,1-.808.156A2.116,2.116,0,0,1,2286.976,1173.848Zm.195-2.967a1.046,1.046,0,0,0-.409.43,1.385,1.385,0,0,0-.144.65,1.494,1.494,0,0,0,.083.508,1.161,1.161,0,0,0,.236.393,1.029,1.029,0,0,0,.37.254,1.241,1.241,0,0,0,.477.09,1.178,1.178,0,0,0,.614-.157,1.06,1.06,0,0,0,.408-.438,1.41,1.41,0,0,0,.145-.651,1.449,1.449,0,0,0-.084-.505,1.142,1.142,0,0,0-.239-.391,1.032,1.032,0,0,0-.369-.251,1.258,1.258,0,0,0-.475-.086A1.2,1.2,0,0,0,2287.17,1170.881Zm-25.087,2.911a1.5,1.5,0,0,1-.578-.572,1.658,1.658,0,0,1-.208-.834V1170h.877v2.44a.8.8,0,0,0,.1.407.678.678,0,0,0,.274.266.822.822,0,0,0,.386.092.793.793,0,0,0,.389-.092.67.67,0,0,0,.264-.262.806.806,0,0,0,.1-.4V1170h.877v2.395a1.659,1.659,0,0,1-.205.832,1.48,1.48,0,0,1-.572.57,1.7,1.7,0,0,1-.85.206A1.717,1.717,0,0,1,2262.083,1173.793Zm-16.313.148V1170h.87v3.94Zm-21.05,0V1170h.87v3.94Zm58.5,0h-.86V1170h1.682a1.361,1.361,0,0,1,.642.14.983.983,0,0,1,.541.893.869.869,0,0,1-.233.615.977.977,0,0,1-.242.187,1.141,1.141,0,0,1,.339.248,1.009,1.009,0,0,1,.269.715,1.073,1.073,0,0,1-.614.993,1.556,1.556,0,0,1-.713.151Zm.727-.681a.529.529,0,0,0,.4-.15.517.517,0,0,0,.144-.369.535.535,0,0,0-.067-.267.476.476,0,0,0-.186-.184.592.592,0,0,0-.292-.067h-.727v1.038Zm-.072-1.7a.541.541,0,0,0,.35-.109.407.407,0,0,0,.133-.332.4.4,0,0,0-.133-.327.536.536,0,0,0-.35-.109h-.655v.877Zm-2.854,2.383-.257-.715h-1.537l-.261.715h-.9l1.554-3.941h.788l1.538,3.941Zm-.514-1.429-.506-1.406-.513,1.406Zm-5.479,1.429h-.959v-5.63h1.245v4.529h2.483v1.1Zm-5.344,0V1172.3l-1.393-2.281v.747h-1.228v3.176h-.871v-3.176h-1.228V1170h4.325l.836,1.439.835-1.439h.989l-1.394,2.266v1.676ZM2270.454,1171.994Zm-10.39,1.943-.257-.715h-1.536l-.261.715h-.906l1.555-3.941h.789l1.538,3.941Zm-.514-1.429-.506-1.405-.513,1.405Zm-4.9,1.429h-.666V1170h2.787v.754h-1.916v.809h1.75v.731h-1.75v.887h1.944v.76Zm-4.36,0h-1.229v-5.63h2.4a1.936,1.936,0,0,1,.916.2,1.42,1.42,0,0,1,.575.535,1.435,1.435,0,0,1,.2.742,1.243,1.243,0,0,1-.333.877,1.4,1.4,0,0,1-.346.268,1.636,1.636,0,0,1,.485.355,1.444,1.444,0,0,1,.385,1.021,1.54,1.54,0,0,1-.876,1.419,2.24,2.24,0,0,1-1.02.215Zm1.039-.973a.755.755,0,0,0,.571-.215.734.734,0,0,0,.207-.526.766.766,0,0,0-.1-.382.689.689,0,0,0-.266-.264.837.837,0,0,0-.416-.1h-1.039v1.483Zm-.1-2.432a.765.765,0,0,0,.5-.156.576.576,0,0,0,.191-.474.568.568,0,0,0-.191-.467.765.765,0,0,0-.5-.155h-.936v1.252Zm-6.9,3.4-1.5-1.939v1.939h-.871V1170h.871v1.778l1.449-1.778h1.077l-1.586,1.875,1.642,2.066Zm-5.12,0h-.666V1170h2.787v.754h-1.915v.809h1.749v.731h-1.749v.887h1.943v.76Zm-2.287,0v-2.18l-.85,1.332h-.578l-.85-1.339v2.187h-.866V1170h.622l1.385,2.169,1.38-2.169h.627v3.941ZM2235.938,1172.414Zm-3.5,1.524-.257-.715h-1.536l-.261.715h-1.9l-1.169-1.625h-.091v1.625h-.872V1170h1.6a1.5,1.5,0,0,1,.682.148,1.142,1.142,0,0,1,.462.41,1.18,1.18,0,0,1,0,1.209,1.117,1.117,0,0,1-.467.4,1.415,1.415,0,0,1-.367.117l1.231,1.619,1.542-3.907h.789l1.538,3.941Zm-.514-1.429-.506-1.4-.513,1.4Zm-4.077-.842a.565.565,0,0,0,.4-.134.527.527,0,0,0,0-.715.538.538,0,0,0-.4-.14h-.627v.988Zm-5.164,2.272-2.142-2.771v2.771h-1.246v-5.63h1.246v2.539l2.07-2.539h1.539l-2.266,2.679,2.345,2.951Z" fill="#333"/>
      <path id="KBL" d="M2273.283,1163.97h-.768v-28.975h1.364v27.732H2290v1.244Zm-26.136,0h-1.364v-28.975H2256.1a9.95,9.95,0,0,1,4.285.857,6.567,6.567,0,0,1,2.814,2.443,7,7,0,0,1,1,3.815,7.259,7.259,0,0,1-1.279,4.351,6.47,6.47,0,0,1-2.8,2.182,7.8,7.8,0,0,1,3.847,2.511,7.43,7.43,0,0,1,1.642,4.844,7.381,7.381,0,0,1-4.392,6.987,11.485,11.485,0,0,1-4.946.986Zm9.338-1.244a8.219,8.219,0,0,0,5.606-1.842A6.169,6.169,0,0,0,2264.2,1156a6.53,6.53,0,0,0-.916-3.471,6.441,6.441,0,0,0-2.537-2.358,7.907,7.907,0,0,0-3.752-.857h-9.849v13.415Zm.3-14.573a6.022,6.022,0,0,0,4.434-1.607,5.853,5.853,0,0,0,1.62-4.351,5.477,5.477,0,0,0-1.833-4.372,7.237,7.237,0,0,0-4.9-1.586h-8.953v11.916Zm-18.632,15.817-17.78-14.7v14.7h-1.364v-28.975h1.364v13.523l17.4-13.523h2.089l-17.9,13.88,18.324,15.1Z" fill="#333"/>
    </g>
    <path id="Color_Overlay" data-name="Color Overlay" d="M2286.976,1173.848a2.04,2.04,0,0,1-.658-.436,1.971,1.971,0,0,1-.439-.651,2.144,2.144,0,0,1,0-1.6,1.978,1.978,0,0,1,1.085-1.075,2.253,2.253,0,0,1,1.633,0,2,2,0,0,1,.655.43,1.956,1.956,0,0,1,.436.647,2.154,2.154,0,0,1,0,1.608,1.977,1.977,0,0,1-.433.647,2,2,0,0,1-.652.433,2.09,2.09,0,0,1-.808.156A2.116,2.116,0,0,1,2286.976,1173.848Zm.195-2.967a1.046,1.046,0,0,0-.409.43,1.385,1.385,0,0,0-.144.65,1.494,1.494,0,0,0,.083.508,1.161,1.161,0,0,0,.236.393,1.029,1.029,0,0,0,.37.254,1.241,1.241,0,0,0,.477.09,1.178,1.178,0,0,0,.614-.157,1.06,1.06,0,0,0,.408-.438,1.41,1.41,0,0,0,.145-.651,1.449,1.449,0,0,0-.084-.505,1.142,1.142,0,0,0-.239-.391,1.032,1.032,0,0,0-.369-.251,1.258,1.258,0,0,0-.475-.086A1.2,1.2,0,0,0,2287.17,1170.881Zm-25.087,2.911a1.5,1.5,0,0,1-.578-.572,1.658,1.658,0,0,1-.208-.834V1170h.877v2.44a.8.8,0,0,0,.1.407.678.678,0,0,0,.274.266.822.822,0,0,0,.386.092.793.793,0,0,0,.389-.092.67.67,0,0,0,.264-.262.806.806,0,0,0,.1-.4V1170h.877v2.395a1.659,1.659,0,0,1-.205.832,1.48,1.48,0,0,1-.572.57,1.7,1.7,0,0,1-.85.206A1.717,1.717,0,0,1,2262.083,1173.793Zm-16.313.148V1170h.87v3.94Zm-21.05,0V1170h.87v3.94Zm58.5,0h-.86V1170h1.682a1.361,1.361,0,0,1,.642.14.983.983,0,0,1,.541.893.869.869,0,0,1-.233.615.98.98,0,0,1-.242.187,1.135,1.135,0,0,1,.339.248,1.009,1.009,0,0,1,.269.715,1.073,1.073,0,0,1-.614.993,1.556,1.556,0,0,1-.713.151Zm0-.681h.727a.529.529,0,0,0,.4-.15.517.517,0,0,0,.144-.369.535.535,0,0,0-.067-.267.476.476,0,0,0-.186-.184.592.592,0,0,0-.292-.067h-.727Zm0-1.7h.655a.541.541,0,0,0,.35-.109.407.407,0,0,0,.133-.332.4.4,0,0,0-.133-.327.536.536,0,0,0-.35-.109h-.655Zm-2.2,2.383-.257-.715h-1.536l-.261.715h-.9l1.554-3.941h.788l1.538,3.941Zm-1.533-1.429h1.019l-.506-1.406Zm-4.46,1.429h-.959v-5.63h1.245v4.529h2.483v1.1Zm-5.344,0V1172.3l-1.393-2.281v.747h-1.228v3.176h-.871v-3.176h-1.228V1170h4.325l.836,1.438.835-1.438h.989l-1.394,2.265v1.676Zm-9.623,0-.256-.715h-1.536l-.261.715h-.906l1.555-3.941h.789l1.538,3.941Zm-1.533-1.429h1.019l-.506-1.406Zm-3.881,1.429h-.666V1170h2.787v.754h-1.916v.809h1.75v.731h-1.75v.887h1.944v.76Zm-4.36,0h-1.229v-5.63h2.4a1.936,1.936,0,0,1,.916.2,1.42,1.42,0,0,1,.575.535,1.435,1.435,0,0,1,.2.742,1.243,1.243,0,0,1-.333.877,1.415,1.415,0,0,1-.346.268,1.638,1.638,0,0,1,.485.354,1.444,1.444,0,0,1,.385,1.021,1.54,1.54,0,0,1-.876,1.419,2.24,2.24,0,0,1-1.02.215Zm0-.973h1.039a.755.755,0,0,0,.571-.215.734.734,0,0,0,.207-.526.766.766,0,0,0-.1-.382.689.689,0,0,0-.266-.264.837.837,0,0,0-.416-.1h-1.039Zm0-2.432h.936a.765.765,0,0,0,.5-.156.576.576,0,0,0,.191-.474.568.568,0,0,0-.191-.467.765.765,0,0,0-.5-.155h-.936Zm-5.969,3.4-1.5-1.939v1.939h-.871V1170h.871v1.778l1.449-1.778h1.077l-1.586,1.876,1.642,2.065Zm-5.12,0h-.666V1170h2.787v.754h-1.915v.809h1.749v.731h-1.749v.887h1.943v.76Zm-2.287,0v-2.18l-.85,1.331h-.578l-.85-1.338v2.187h-.866V1170h.622l1.385,2.169,1.38-2.169h.627v3.941Zm-4.481,0-.258-.715h-1.536l-.261.715h-1.9l-1.169-1.625h-.091v1.625h-.872V1170h1.6a1.5,1.5,0,0,1,.682.148,1.142,1.142,0,0,1,.462.41,1.18,1.18,0,0,1,0,1.209,1.117,1.117,0,0,1-.467.4,1.384,1.384,0,0,1-.367.116l1.23,1.619,1.542-3.907h.789l1.538,3.941Zm-1.533-1.429h1.019l-.506-1.4Zm-3.681-.842h.622a.565.565,0,0,0,.4-.134.527.527,0,0,0,0-.715.538.538,0,0,0-.4-.14h-.627Zm-4.542,2.272-2.142-2.771v2.771h-1.246v-5.63h1.246v2.539l2.07-2.539h1.539l-2.266,2.678,2.345,2.951Zm50.6-9.968h-.768v-28.975h1.364v27.732H2290v1.244Zm-26.136,0h-1.364v-28.975H2256.1a9.95,9.95,0,0,1,4.285.857,6.567,6.567,0,0,1,2.814,2.443,7,7,0,0,1,1,3.815,7.259,7.259,0,0,1-1.279,4.351,6.472,6.472,0,0,1-2.8,2.182,7.792,7.792,0,0,1,3.846,2.511,7.43,7.43,0,0,1,1.642,4.844,7.381,7.381,0,0,1-4.392,6.987,11.485,11.485,0,0,1-4.946.986Zm0-1.244h9.338a8.219,8.219,0,0,0,5.606-1.842A6.169,6.169,0,0,0,2264.2,1156a6.53,6.53,0,0,0-.916-3.471,6.441,6.441,0,0,0-2.537-2.358,7.907,7.907,0,0,0-3.752-.857h-9.849Zm0-14.573h9.635a6.022,6.022,0,0,0,4.434-1.607,5.853,5.853,0,0,0,1.62-4.351,5.477,5.477,0,0,0-1.833-4.372,7.237,7.237,0,0,0-4.9-1.586h-8.953Zm-9,15.817-17.78-14.7v14.7h-1.364v-28.975h1.364v13.522l17.4-13.522h2.089l-17.9,13.88,18.325,15.1Z" fill="#fa7da3"/>
  </g>
</svg>
