<svg xmlns="http://www.w3.org/2000/svg" width="358.1" height="26" viewBox="0 0 358.1 26">
  <g id="グループ_1" data-name="グループ 1" transform="translate(-542.733 -1574.75)">
    <text id="が選ばれる" transform="translate(809.833 1595.75)" fill="#4d2b1b" font-size="18.07" font-family="NotoSansJP-Medium, Noto Sans JP" font-weight="500"><tspan x="0" y="0">が</tspan><tspan y="0">選</tspan><tspan y="0">ばれる</tspan></text>
    <path id="Kirameki_Beauty_Labo" data-name="Kirameki Beauty Labo" d="M700.079,1596.279a5.413,5.413,0,0,1-1.26-3.865v-5.93a13.789,13.789,0,0,0-.135-2.3h2.5a13.188,13.188,0,0,0-.134,2.3v5.93c0,2.268,1.176,3.461,3.445,3.461,2.253,0,3.412-1.193,3.412-3.478v-5.914a13.683,13.683,0,0,0-.134-2.3h2.5a13.575,13.575,0,0,0-.135,2.285v5.964c0,3.478-2.067,5.426-5.731,5.426A5.8,5.8,0,0,1,700.079,1596.279Zm91.767-5.444a7.19,7.19,0,0,1,1.916-5.242,5.829,5.829,0,0,1,4.337-1.679,5.894,5.894,0,0,1,4.421,1.679,7.245,7.245,0,0,1,1.882,5.242c0,4.251-2.471,7.007-6.286,7.007S791.846,1595.1,791.846,1590.835Zm2.336.017a5.551,5.551,0,0,0,1.362,3.965,3.634,3.634,0,0,0,2.606,1.024c2.4,0,3.9-1.915,3.9-5.007a5.423,5.423,0,0,0-1.328-3.914,3.617,3.617,0,0,0-2.588-1.025C795.713,1585.9,794.182,1587.812,794.182,1590.852Zm-35.233,6.79h-7.106c-1.345,0-2.185.024-3.049.072a19.024,19.024,0,0,0,.193-3.167v-12.453a23.376,23.376,0,0,0-.193-3.551h3.625a21.884,21.884,0,0,0-.192,3.527v12.669h6.721a25.423,25.423,0,0,0,3.409-.167v3.239A23.336,23.336,0,0,0,758.949,1597.641Zm-105.009-3.167v-13.029a22.912,22.912,0,0,0-.192-2.951c1.008.048,1.392.048,3.025.048h5.666c3.721,0,5.81,1.68,5.81,4.679a4.289,4.289,0,0,1-1.345,3.383,4.058,4.058,0,0,1-1.9,1.008,4.4,4.4,0,0,1,2.425,1.1,4.735,4.735,0,0,1,1.489,3.672c0,3.359-2.233,5.254-6.218,5.254H656.8c-1.392,0-2.088.024-3.073.072A17.088,17.088,0,0,0,653.94,1594.474Zm3.169.456h5.161c2.137,0,3.337-1.057,3.337-3a2.6,2.6,0,0,0-.769-2.087,3.92,3.92,0,0,0-2.616-.816h-5.114Zm0-8.566H662.1c1.824,0,2.9-.984,2.9-2.615a2.44,2.44,0,0,0-.625-1.776,3.4,3.4,0,0,0-2.3-.744h-4.97Zm22.549,11.191h-5.244c-1.008,0-1.462.017-2.135.05a13.583,13.583,0,0,0,.135-2.218V1586.3a14.866,14.866,0,0,0-.135-2.167c.672.034,1.11.05,2.135.05h5.077a18.027,18.027,0,0,0,2.168-.117v2.218a14.974,14.974,0,0,0-2.168-.118h-4.841v3.46h4.084a17.565,17.565,0,0,0,2.185-.117v2.2a13.2,13.2,0,0,0-2.185-.117h-4.1v3.964h5.043a15.97,15.97,0,0,0,2.151-.118v2.235A14.473,14.473,0,0,0,679.658,1597.555Zm-59.588,0h-5.244c-1.008,0-1.463.017-2.135.05a13.576,13.576,0,0,0,.135-2.218V1586.3a14.857,14.857,0,0,0-.135-2.167c.672.034,1.11.05,2.135.05H619.9a18.028,18.028,0,0,0,2.168-.117v2.218a14.974,14.974,0,0,0-2.168-.118h-4.841v3.46h4.084a17.565,17.565,0,0,0,2.185-.117v2.2a13.2,13.2,0,0,0-2.185-.117h-4.1v3.964h5.043a15.969,15.969,0,0,0,2.151-.118v2.235A14.473,14.473,0,0,0,620.069,1597.555Zm-65.092.086a22.588,22.588,0,0,0-1.512-2.519l-4.777-6.719-2.617,2.615v3.527a16.315,16.315,0,0,0,.216,3.1h-3.553a20.581,20.581,0,0,0,.193-3.1v-12.91a19.787,19.787,0,0,0-.193-3.1h3.553a17.182,17.182,0,0,0-.216,3.1v5.592l6.122-6.359a11.824,11.824,0,0,0,1.873-2.327H558.6c-.7.7-1.489,1.463-2.544,2.543l-5.138,5.255,6.1,8.254a32.569,32.569,0,0,0,2.4,3.047Zm224.112-2.3v-9.122a16.067,16.067,0,0,0-.134-2.066c.706.033.975.033,2.118.033h3.966c2.606,0,4.068,1.176,4.068,3.276a3.005,3.005,0,0,1-.941,2.37,2.86,2.86,0,0,1-1.327.706,3.083,3.083,0,0,1,1.7.772,3.315,3.315,0,0,1,1.042,2.57c0,2.353-1.563,3.679-4.353,3.679h-4.135c-.976,0-1.462.017-2.152.05A11.967,11.967,0,0,0,779.089,1595.337Zm2.219.32h3.614c1.5,0,2.336-.74,2.336-2.1a1.822,1.822,0,0,0-.538-1.462,2.751,2.751,0,0,0-1.832-.571h-3.58Zm0-6h3.5a1.783,1.783,0,0,0,2.034-1.831,1.71,1.71,0,0,0-.437-1.243,2.383,2.383,0,0,0-1.614-.521h-3.479Zm-7.177,7.9a11.342,11.342,0,0,0-.471-1.764l-.672-1.831h-5.379l-.672,1.831a8.363,8.363,0,0,0-.5,1.764h-2.757a18.391,18.391,0,0,0,.891-1.982l3.7-9.694a9.9,9.9,0,0,0,.537-1.7h2.925a11.265,11.265,0,0,0,.571,1.7l3.731,9.694a17.535,17.535,0,0,0,.858,1.982Zm-4.169-10.5-1.748,4.973h4.169l-1.8-4.973c-.068-.185-.118-.386-.3-.941C770.012,1586.9,770.012,1586.9,769.962,1587.055Zm-40.131,10.5a16.117,16.117,0,0,0,.134-2.167v-3.326l-3.883-6.149c-.252-.4-.639-.958-1.176-1.731h2.941a6.762,6.762,0,0,0,.807,1.646l2.437,4.134,2.471-4.117a7.323,7.323,0,0,0,.79-1.663h2.925c-.236.337-.875,1.26-1.16,1.731l-3.883,6.166v3.309a13.855,13.855,0,0,0,.134,2.167Zm-13.009,0a14.082,14.082,0,0,0,.134-2.183V1586.2h-2.269a16.586,16.586,0,0,0-2.3.118v-2.251a16.965,16.965,0,0,0,2.286.117h6.656a17.888,17.888,0,0,0,2.47-.117v2.251a17.551,17.551,0,0,0-2.47-.118h-2.1v9.174a13.932,13.932,0,0,0,.135,2.183Zm-22.91,0a11.355,11.355,0,0,0-.47-1.764l-.672-1.831h-5.379l-.672,1.831a8.363,8.363,0,0,0-.5,1.764h-2.757a18.379,18.379,0,0,0,.891-1.982l3.7-9.694a9.91,9.91,0,0,0,.538-1.7h2.925a11.04,11.04,0,0,0,.572,1.7l3.731,9.694a17.744,17.744,0,0,0,.857,1.982Zm-4.168-10.5-1.749,4.973h4.169l-1.8-4.973c-.068-.185-.118-.386-.3-.941C689.793,1586.9,689.793,1586.9,689.743,1587.055Zm-51.083,10.5a12.67,12.67,0,0,0,.134-2.167v-9.039a12.556,12.556,0,0,0-.134-2.167h2.554a12.569,12.569,0,0,0-.134,2.167v9.039a12.677,12.677,0,0,0,.134,2.167Zm-5.211,0a15.831,15.831,0,0,0-1.058-1.764l-3.345-4.7-1.832,1.831v2.47a11.35,11.35,0,0,0,.152,2.167h-2.488a14.416,14.416,0,0,0,.135-2.167v-9.039a13.854,13.854,0,0,0-.135-2.167h2.488a11.932,11.932,0,0,0-.152,2.167v3.915l4.287-4.452a8.314,8.314,0,0,0,1.311-1.63h3.176c-.487.488-1.041,1.025-1.781,1.781l-3.6,3.679,4.27,5.78a22.591,22.591,0,0,0,1.681,2.133Zm-26.17,0a15.624,15.624,0,0,0,.134-2.453v-5.578c.068-1.461.118-2.318.135-2.57a20.607,20.607,0,0,1-.773,2.453l-2.522,5.913a13.83,13.83,0,0,0-.74,2.235H601.53a11.524,11.524,0,0,0-.74-2.268l-2.421-5.763a18.829,18.829,0,0,1-.857-2.57c.068.891.134,2.268.134,2.638v5.511a15.335,15.335,0,0,0,.135,2.453h-2.353a15.755,15.755,0,0,0,.134-2.453v-8.434a16.686,16.686,0,0,0-.134-2.487H598.5a11.6,11.6,0,0,0,.622,2l3.412,8.332,3.4-8.332a9.346,9.346,0,0,0,.6-2h3.093a17.385,17.385,0,0,0-.135,2.487v8.434a14.543,14.543,0,0,0,.135,2.453Zm-16.657,0a11.342,11.342,0,0,0-.471-1.764l-.672-1.831H584.1l-.673,1.831a8.415,8.415,0,0,0-.5,1.764h-2.757a18.4,18.4,0,0,0,.891-1.982l3.7-9.694a9.995,9.995,0,0,0,.538-1.7h2.924a11.257,11.257,0,0,0,.571,1.7l3.732,9.694a17.579,17.579,0,0,0,.857,1.982Zm-4.169-10.5-1.748,4.973h4.169l-1.8-4.973c-.067-.185-.117-.386-.3-.941C586.5,1586.9,586.5,1586.9,586.453,1587.055Zm-10.4,10.5a13.571,13.571,0,0,0-.874-2.687c-.908-2.318-1.5-2.94-2.79-2.94h-2.5v3.427a13.114,13.114,0,0,0,.134,2.2h-2.5a13.131,13.131,0,0,0,.135-2.183v-9.056a14.944,14.944,0,0,0-.135-2.184c.707.034,1.228.05,2.152.05H573.7c2.555,0,4.018,1.277,4.018,3.495a3.451,3.451,0,0,1-.858,2.5,3.545,3.545,0,0,1-1.866.975c1.059.337,1.379.806,3.043,4.738.134.3.554,1.21.79,1.663Zm-6.169-7.543h3.379a2.268,2.268,0,0,0,1.6-.6,2,2,0,0,0,.538-1.479c0-1.21-.689-1.832-2.068-1.832H569.88Zm-7.968,7.543a12.656,12.656,0,0,0,.135-2.167v-9.039a12.542,12.542,0,0,0-.135-2.167h2.555a12.569,12.569,0,0,0-.134,2.167v9.039a12.677,12.677,0,0,0,.134,2.167Z" fill="#4d2b1b"/>
  </g>
</svg>
